<?xml version="1.0" standalone="no"?>
<!DOCTYPE svg PUBLIC "-//W3C//DTD SVG 20010904//EN"
 "http://www.w3.org/TR/2001/REC-SVG-20010904/DTD/svg10.dtd">
<svg version="1.0" xmlns="http://www.w3.org/2000/svg"
 width="1976.000000pt" height="995.000000pt" viewBox="0 0 1976.000000 995.000000"
 preserveAspectRatio="xMidYMid meet">

<g transform="translate(0.000000,995.000000) scale(0.100000,-0.100000)"
fill="#000000" stroke="none">
<path d="M570 8585 l0 -1315 -245 0 -245 0 0 -970 0 -970 245 0 245 0 0 -2645
0 -2645 975 0 975 0 0 2645 0 2645 920 0 920 0 0 -2645 0 -2645 970 0 970 0 0
3615 0 3615 -1890 0 -1890 0 0 1315 0 1315 -975 0 -975 0 0 -1315z"/>
<path d="M17220 8585 l0 -1315 -1895 0 -1895 0 0 -3615 0 -3615 3110 0 3110 0
0 975 0 975 -245 0 -245 0 0 3955 0 3955 -970 0 -970 0 0 -1315z m0 -4925 l0
-1670 -920 0 -920 0 0 1670 0 1670 920 0 920 0 0 -1670z"/>
<path d="M6990 5336 l0 -1934 997 -1681 998 -1681 881 0 881 0 991 1677 992
1677 0 1938 0 1938 -970 0 -970 0 0 -1669 0 -1670 -457 -775 c-252 -426 -462
-774 -468 -772 -5 1 -216 348 -467 771 l-458 768 0 1673 0 1674 -975 0 -975 0
0 -1934z"/>
</g>
</svg>
